<?xml version="1.0"?>
<svg xmlns="http://www.w3.org/2000/svg" xmlns:xlink="http://www.w3.org/1999/xlink" xmlns:svgjs="http://svgjs.com/svgjs" version="1.1" width="512" height="512" x="0" y="0" viewBox="0 0 513 513" style="enable-background:new 0 0 512 512" xml:space="preserve" class=""><g><g xmlns="http://www.w3.org/2000/svg"><path d="m286 25.5h-271c-8.284 0-15 6.716-15 15v45h286z" fill="#6fbcbf" data-original="#000000" style="" class=""/><path d="m376 40.5c0-8.284-6.716-15-15-15h-45v60h60z" fill="#6fbcbf" data-original="#000000" style="" class=""/><path d="m71 185.5h166v31h-166z" fill="#6fbcbf" data-original="#000000" style="" class=""/><path d="m498 427.5h-242c-8.284 0-15 6.716-15 15v30c0 8.284 6.716 15 15 15h242c8.284 0 15-6.716 15-15v-30c0-8.284-6.716-15-15-15z" fill="#6fbcbf" data-original="#000000" style="" class=""/><path d="m362.102 209.818-44.322 109.162h116.44l-44.321-109.162c-2.297-5.657-7.793-9.357-13.898-9.357s-11.603 3.7-13.899 9.357z" fill="#6fbcbf" data-original="#000000" style="" class=""/><path d="m285.9 397.5h180.2l-19.7-48.52h-140.8z" fill="#6fbcbf" data-original="#000000" style="" class=""/><path d="m334.306 198.532c6.923-17.053 23.289-28.071 41.694-28.071v-54.961h-376v297c0 8.284 6.716 15 15 15h198.571c5.925-16.707 21.456-28.906 39.921-29.926zm-142.306 168.968h-136c-8.284 0-15-6.716-15-15s6.716-15 15-15h136c8.284 0 15 6.716 15 15s-6.716 15-15 15zm30-60h-166c-8.284 0-15-6.716-15-15s6.716-15 15-15h166c8.284 0 15 6.716 15 15s-6.716 15-15 15zm-166-61c-8.284 0-15-6.716-15-15v-61c0-8.284 6.716-15 15-15h196c8.284 0 15 6.716 15 15v61c0 8.284-6.716 15-15 15z" fill="#6fbcbf" data-original="#000000" style="" class=""/></g></g></svg>
